<svg width="15" height="5" viewBox="0 0 15 5" fill="none" xmlns="http://www.w3.org/2000/svg">
<path d="M0.266 5V4.706H0.357C0.459667 4.706 0.553 4.69667 0.637 4.678C0.725667 4.65467 0.795667 4.608 0.847 4.538C0.903 4.468 0.931 4.36533 0.931 4.23V0.8C0.931 0.650666 0.905333 0.541 0.854 0.471C0.802667 0.401 0.732667 0.354333 0.644 0.331C0.56 0.307666 0.464333 0.296 0.357 0.296H0.266V0.00199968H3.64L3.675 1.227H3.311L3.276 0.926C3.26667 0.823333 3.241 0.73 3.199 0.646C3.16167 0.557333 3.10333 0.487333 3.024 0.436C2.94467 0.38 2.835 0.352 2.695 0.352H1.638V2.235H2.079C2.53167 2.235 2.89333 2.29333 3.164 2.41C3.43933 2.52667 3.64 2.69 3.766 2.9C3.892 3.10533 3.955 3.34333 3.955 3.614C3.955 3.88467 3.892 4.125 3.766 4.335C3.64467 4.545 3.45567 4.70833 3.199 4.825C2.947 4.94167 2.625 5 2.233 5H0.266ZM2.114 4.664C2.38 4.664 2.59233 4.62667 2.751 4.552C2.90967 4.47733 3.024 4.36533 3.094 4.216C3.164 4.06667 3.199 3.87767 3.199 3.649C3.199 3.38767 3.157 3.17767 3.073 3.019C2.99367 2.86033 2.86767 2.746 2.695 2.676C2.52233 2.60133 2.29367 2.564 2.009 2.564H1.638V4.664H2.114ZM4.49745 5V4.706H4.58845C4.69578 4.706 4.79145 4.69433 4.87545 4.671C4.96411 4.64767 5.03411 4.601 5.08545 4.531C5.13678 4.45633 5.16245 4.34667 5.16245 4.202V0.772C5.16245 0.632 5.13445 0.529333 5.07845 0.464C5.02711 0.394 4.95711 0.349666 4.86845 0.331C4.78445 0.307666 4.69111 0.296 4.58845 0.296H4.49745V0.00199968H9.44645V0.296H9.35545C9.25278 0.296 9.15711 0.307666 9.06845 0.331C8.97978 0.354333 8.90978 0.401 8.85845 0.471C8.80711 0.541 8.78145 0.650666 8.78145 0.8V4.237C8.78145 4.37233 8.80711 4.475 8.85845 4.545C8.91445 4.61033 8.98445 4.65467 9.06845 4.678C9.15711 4.69667 9.25278 4.706 9.35545 4.706H9.44645V5H7.40945V4.706H7.50045C7.60778 4.706 7.70345 4.69433 7.78745 4.671C7.87611 4.64767 7.94611 4.601 7.99745 4.531C8.04878 4.45633 8.07445 4.34667 8.07445 4.202V0.352H5.86945V4.202C5.86945 4.34667 5.89511 4.45633 5.94645 4.531C5.99778 4.601 6.06778 4.64767 6.15645 4.671C6.24511 4.69433 6.34078 4.706 6.44345 4.706H6.53445V5H4.49745ZM9.83631 5V4.706H9.92731C10.0346 4.706 10.1303 4.69433 10.2143 4.671C10.303 4.64767 10.373 4.601 10.4243 4.531C10.4756 4.45633 10.5013 4.34667 10.5013 4.202V0.772C10.5013 0.632 10.4733 0.529333 10.4173 0.464C10.366 0.394 10.296 0.349666 10.2073 0.331C10.1233 0.307666 10.03 0.296 9.92731 0.296H9.83631V0.00199968H11.8733V0.296H11.7823C11.6796 0.296 11.584 0.307666 11.4953 0.331C11.4066 0.354333 11.3366 0.401 11.2853 0.471C11.234 0.541 11.2083 0.650666 11.2083 0.8V3.572L13.5533 0.94V0.8C13.5533 0.650666 13.5276 0.541 13.4763 0.471C13.425 0.401 13.355 0.354333 13.2663 0.331C13.1823 0.307666 13.0866 0.296 12.9793 0.296H12.8883V0.00199968H14.9253V0.296H14.8343C14.7316 0.296 14.636 0.307666 14.5473 0.331C14.4586 0.354333 14.3886 0.401 14.3373 0.471C14.286 0.541 14.2603 0.650666 14.2603 0.8V4.237C14.2603 4.37233 14.286 4.475 14.3373 4.545C14.3933 4.61033 14.4633 4.65467 14.5473 4.678C14.636 4.69667 14.7316 4.706 14.8343 4.706H14.9253V5H12.8883V4.706H12.9793C13.0866 4.706 13.1823 4.69433 13.2663 4.671C13.355 4.64767 13.425 4.601 13.4763 4.531C13.5276 4.45633 13.5533 4.34667 13.5533 4.202V1.43L11.2083 4.062V4.202C11.2083 4.34667 11.234 4.45633 11.2853 4.531C11.3366 4.601 11.4066 4.64767 11.4953 4.671C11.584 4.69433 11.6796 4.706 11.7823 4.706H11.8733V5H9.83631Z" fill="#2CAFFE"/>
</svg>
